<svg xmlns="http://www.w3.org/2000/svg" width="200" height="200" viewBox="0 0 200 200">
<!-- SVG created with Arrow, by QuiverAI (https://quiver.ai) -->
  <path d="m99.17 4.75c-52.09 0-94.59 42.33-94.59 94.96 0 52.2 42.5 95.54 94.43 95.54 52.2 0 96.41-42.89 96.41-95.54 0-51.7-42.67-94.96-96.25-94.96zm-0.16 7.76c48.17 0 88.24 40.48 88.24 87.2 0 48.4-40.23 86.58-88.24 86.58-47.84 0-86.59-38.57-86.59-86.58 0-47.42 38.36-87.2 86.59-87.2z" fill="#15284E"/>
  <path d="m159 134.4h-118.4c-2.72 0-3.43 2.27-3.43 3.67 0 1.64 0.93 3.44 3.36 3.44h118.5c2.68 0 3.62-1.95 3.62-3.59s-1.25-3.52-3.62-3.52z" fill="#15284E"/>
  <path d="m145.1 148.1h-90.66c-2.73 0-3.04 2.53-3.04 3.39 0 1.64 1.01 3.52 3.2 3.52h90.66c2.68 0 3.17-2.27 3.17-3.36 0-1.72-1.17-3.55-3.33-3.55z" fill="#15284E"/>
  <path d="m130.2 161.5h-60c-3.21 0-3.36 2.92-3.36 3.31 0 1.64 1.17 3.67 3.28 3.67h60.08c2.81 0 3.12-2.45 3.12-3.2 0-1.64-1.01-3.78-3.12-3.78z" fill="#15284E"/>
  <path d="m144.4 89.71c-2.73-11.51-9.53-20.55-21.17-25.48l-50.78 8.38c-2.03-2.65-4.45-3.45-7.66-3.45-5.62 0-9.76 4-9.76 8.45 0 4.6 2.5 7.27 6.64 9.3-3.44 6.6-4.38 15.86-3.91 24.07l1.57 17.22h86.79v-19.88l-0.94-14.09-0.78-4.52z" fill="#00B5CE"/>
  <path d="m116.3 71.91c-9.06 0-15.55 7.64-15.55 15.63 0 8.59 7.03 14.75 15.08 14.75 9.45 0 15.63-8.38 15.63-15.38 0-8.07-6.65-15-15.16-15z" fill="#fff"/>
  <path d="m122.7 81.8c-3.83 0-5.63 2.66-5.63 5.03 0 3.29 2.42 5.08 5.08 5.08 3.59 0 5.62-2.44 5.62-5.08 0-2.52-1.87-5.03-5.07-5.03z" fill="#15284E"/>
  <path d="m150.9 96.75c0.86-1.01 0.78-2.52 0.55-3.47-0.79-3.16-3.13-3.65-5.63-3.65-3.67 0-5.7 1.51-6.09 4.24-5.08 1.56-6.25 5.36-6.25 8.66 0 4.53 2.73 6.1 6.17 6.02 0.62 0 0.7 0.08 0.7 0.76 0 3.46 0.47 5.34 2.35 5.34 4.92 0 6.17-2.04 6.48-8.71 2.42-2.03 3.05-3.76 3.05-5.88 0-1.31-0.47-2.45-1.33-3.31zm-3.98 10.16c-0.39 3.71-0.24 5.35-3.44 5.35-0.86 0-0.78-1.48-0.78-4.06 1.79-0.51 3.12-0.98 4.22-1.6v0.31zm1.95-4.14c-1.25 1.95-7.58 4.14-9.61 4.14-2.5 0-3.44-1.25-3.44-3.79 0-2.85 1.56-5.31 5-6.64 1.8 1.8 3.67 2.83 5.94 2.83 0.94 0 1.87-0.24 2.66-0.64 0.46 0.64 0.7 1.5 0.7 2.27 0 0.62-0.39 1.24-1.25 1.83z" fill="#15284E"/>
  <path d="m119.7 52.69 3.59-22.34-15.55 13.76-15.07-14.99-10.55 19.08-19.45-7.97 10.31 20.32 46.72-7.86z" fill="#15284E"/>
  <path d="m119.8 54.8-46.25 7.85 0.63 6.51 46.33-7.75-0.71-6.61z" fill="#15284E"/>
</svg>